<svg xmlns="http://www.w3.org/2000/svg" width="1280" height="720" viewBox="0 0 1280 720" role="img" aria-label="report screenshot placeholder">
  <defs><style>.bg{fill:#0b1220}.card{fill:#111827;stroke:#334155;stroke-width:2;rx:16}.soft{fill:#1f2937}.txt{fill:#e5e7eb;font:700 28px 'Inter','Noto Sans KR',sans-serif}.sub{fill:#cbd5e1;font:600 18px 'Inter','Noto Sans KR',sans-serif}.muted{fill:#94a3b8;font:500 15px 'Inter','Noto Sans KR',sans-serif}.line{fill:#334155}.green{fill:#10b981}.yellow{fill:#f59e0b}.blue{fill:#3b82f6}</style></defs>
  <rect class="bg" width="1280" height="720"/>
  <rect x="40" y="40" width="1200" height="640" class="card"/>
  <text x="80" y="95" class="txt">리포트 상세 화면 예시 자리</text>
  <text x="80" y="130" class="muted">analysis / recommendations / today-picks 를 합쳐 보여주는 화면 설명용</text>
  <rect x="80" y="165" width="760" height="150" class="card"/>
  <rect x="870" y="165" width="300" height="150" class="card"/>
  <text x="110" y="210" class="sub">요약 브리프</text>
  <text x="900" y="210" class="sub">리스크 요약</text>
  <rect x="110" y="235" width="680" height="16" class="line"/>
  <rect x="110" y="265" width="650" height="16" class="line"/>
  <rect x="110" y="295" width="540" height="16" class="line"/>
  <circle cx="1110" cy="220" r="10" class="yellow"/>
  <circle cx="1110" cy="250" r="10" class="green"/>
  <circle cx="1110" cy="280" r="10" class="blue"/>
  <rect x="80" y="345" width="1090" height="280" class="card"/>
  <text x="110" y="390" class="sub">추천 종목 / 오늘의 픽 테이블 예시</text>
  <rect x="110" y="420" width="1030" height="28" class="soft"/>
  <rect x="110" y="470" width="1030" height="20" class="line"/>
  <rect x="110" y="510" width="1030" height="20" class="line"/>
  <rect x="110" y="550" width="1030" height="20" class="line"/>
  <text x="435" y="655" class="muted">실제 보고서 화면 캡처가 생기면 이 파일을 교체하면 됨</text>
</svg>